<?xml version="1.0" encoding="UTF-8" standalone="no"?>
<!DOCTYPE svg PUBLIC "-//W3C//DTD SVG 1.1//EN"
 "http://www.w3.org/Graphics/SVG/1.1/DTD/svg11.dtd">
<!-- Generated by graphviz version 2.38.0 (20140413.2041)
 -->
<!-- Title: controllers_diagram Pages: 1 -->
<svg width="662pt" height="535pt"
 viewBox="0.00 0.00 661.50 535.00" xmlns="http://www.w3.org/2000/svg" xmlns:xlink="http://www.w3.org/1999/xlink">
<g id="graph0" class="graph" transform="scale(1 1) rotate(0) translate(244 275.5)">
<title>controllers_diagram</title>
<polygon fill="none" stroke="none" points="-244,259.5 -244,-275.5 417.5,-275.5 417.5,259.5 -244,259.5"/>
<!-- _diagram_info -->
<g id="node1" class="node"><title>_diagram_info</title>
<text text-anchor="start" x="72" y="-127.6" font-family="Times,serif" font-size="13.00">Controllers diagram</text>
<text text-anchor="start" x="72" y="-113.6" font-family="Times,serif" font-size="13.00">Date: Oct 24 2017 &#45; 13:36</text>
<text text-anchor="start" x="72" y="-99.6" font-family="Times,serif" font-size="13.00">Migration version: 20171024163527</text>
<text text-anchor="start" x="72" y="-85.6" font-family="Times,serif" font-size="13.00">Generated by RailRoady 1.5.3</text>
<text text-anchor="start" x="72" y="-71.6" font-family="Times,serif" font-size="13.00">http://railroady.prestonlee.com</text>
</g>
<!-- ApplicationController -->
<g id="node2" class="node"><title>ApplicationController</title>
<path fill="none" stroke="black" d="M-228,-17C-228,-17 -116,-17 -116,-17 -110,-17 -104,-23 -104,-29 -104,-29 -104,-99 -104,-99 -104,-105 -110,-111 -116,-111 -116,-111 -228,-111 -228,-111 -234,-111 -240,-105 -240,-99 -240,-99 -240,-29 -240,-29 -240,-23 -234,-17 -228,-17"/>
<text text-anchor="middle" x="-172" y="-95.8" font-family="Times,serif" font-size="14.00">ApplicationController</text>
<polyline fill="none" stroke="black" points="-240,-88 -104,-88 "/>
<polyline fill="none" stroke="black" points="-240,-64 -104,-64 "/>
<polyline fill="none" stroke="black" points="-240,-40 -104,-40 "/>
<text text-anchor="start" x="-232" y="-24.8" font-family="Times,serif" font-size="14.00">_layout</text>
</g>
<!-- Users::PasswordsController -->
<g id="node3" class="node"><title>Users::PasswordsController</title>
<path fill="none" stroke="black" d="M75.5,191C75.5,191 218.5,191 218.5,191 224.5,191 230.5,185 230.5,179 230.5,179 230.5,109 230.5,109 230.5,103 224.5,97 218.5,97 218.5,97 75.5,97 75.5,97 69.5,97 63.5,103 63.5,109 63.5,109 63.5,179 63.5,179 63.5,185 69.5,191 75.5,191"/>
<text text-anchor="middle" x="147" y="112.2" font-family="Times,serif" font-size="14.00">Users::PasswordsController</text>
<polyline fill="none" stroke="black" points="63.5,120 230.5,120 "/>
<polyline fill="none" stroke="black" points="63.5,144 230.5,144 "/>
<polyline fill="none" stroke="black" points="63.5,168 230.5,168 "/>
<text text-anchor="start" x="71.5" y="183.2" font-family="Times,serif" font-size="14.00">_layout</text>
</g>
<!-- Users::RegistrationsController -->
<g id="node4" class="node"><title>Users::RegistrationsController</title>
<path fill="none" stroke="black" d="M-132,-145C-132,-145 26,-145 26,-145 32,-145 38,-151 38,-157 38,-157 38,-227 38,-227 38,-233 32,-239 26,-239 26,-239 -132,-239 -132,-239 -138,-239 -144,-233 -144,-227 -144,-227 -144,-157 -144,-157 -144,-151 -138,-145 -132,-145"/>
<text text-anchor="middle" x="-53" y="-223.8" font-family="Times,serif" font-size="14.00">Users::RegistrationsController</text>
<polyline fill="none" stroke="black" points="-144,-216 38,-216 "/>
<polyline fill="none" stroke="black" points="-144,-192 38,-192 "/>
<polyline fill="none" stroke="black" points="-144,-168 38,-168 "/>
<text text-anchor="start" x="-136" y="-152.8" font-family="Times,serif" font-size="14.00">_layout</text>
</g>
<!-- Users::OmniauthCallbacksController -->
<g id="node5" class="node"><title>Users::OmniauthCallbacksController</title>
<path fill="none" stroke="black" d="M76,63C76,63 270,63 270,63 276,63 282,57 282,51 282,51 282,-19 282,-19 282,-25 276,-31 270,-31 270,-31 76,-31 76,-31 70,-31 64,-25 64,-19 64,-19 64,51 64,51 64,57 70,63 76,63"/>
<text text-anchor="middle" x="173" y="-15.8" font-family="Times,serif" font-size="14.00">Users::OmniauthCallbacksController</text>
<polyline fill="none" stroke="black" points="64,-8 282,-8 "/>
<polyline fill="none" stroke="black" points="64,16 282,16 "/>
<polyline fill="none" stroke="black" points="64,40 282,40 "/>
<text text-anchor="start" x="72" y="55.2" font-family="Times,serif" font-size="14.00">_layout</text>
</g>
<!-- Users::UnlocksController -->
<g id="node6" class="node"><title>Users::UnlocksController</title>
<path fill="none" stroke="black" d="M-227.5,239C-227.5,239 -96.5,239 -96.5,239 -90.5,239 -84.5,233 -84.5,227 -84.5,227 -84.5,157 -84.5,157 -84.5,151 -90.5,145 -96.5,145 -96.5,145 -227.5,145 -227.5,145 -233.5,145 -239.5,151 -239.5,157 -239.5,157 -239.5,227 -239.5,227 -239.5,233 -233.5,239 -227.5,239"/>
<text text-anchor="middle" x="-162" y="160.2" font-family="Times,serif" font-size="14.00">Users::UnlocksController</text>
<polyline fill="none" stroke="black" points="-239.5,168 -84.5,168 "/>
<polyline fill="none" stroke="black" points="-239.5,192 -84.5,192 "/>
<polyline fill="none" stroke="black" points="-239.5,216 -84.5,216 "/>
<text text-anchor="start" x="-231.5" y="231.2" font-family="Times,serif" font-size="14.00">_layout</text>
</g>
<!-- Users::ConfirmationsController -->
<g id="node7" class="node"><title>Users::ConfirmationsController</title>
<path fill="none" stroke="black" d="M188.5,-177C188.5,-177 353.5,-177 353.5,-177 359.5,-177 365.5,-183 365.5,-189 365.5,-189 365.5,-259 365.5,-259 365.5,-265 359.5,-271 353.5,-271 353.5,-271 188.5,-271 188.5,-271 182.5,-271 176.5,-265 176.5,-259 176.5,-259 176.5,-189 176.5,-189 176.5,-183 182.5,-177 188.5,-177"/>
<text text-anchor="middle" x="271" y="-255.8" font-family="Times,serif" font-size="14.00">Users::ConfirmationsController</text>
<polyline fill="none" stroke="black" points="176.5,-248 365.5,-248 "/>
<polyline fill="none" stroke="black" points="176.5,-224 365.5,-224 "/>
<polyline fill="none" stroke="black" points="176.5,-200 365.5,-200 "/>
<text text-anchor="start" x="184.5" y="-184.8" font-family="Times,serif" font-size="14.00">_layout</text>
</g>
<!-- Users::SessionsController -->
<g id="node8" class="node"><title>Users::SessionsController</title>
<path fill="none" stroke="black" d="M268.5,255C268.5,255 401.5,255 401.5,255 407.5,255 413.5,249 413.5,243 413.5,243 413.5,173 413.5,173 413.5,167 407.5,161 401.5,161 401.5,161 268.5,161 268.5,161 262.5,161 256.5,167 256.5,173 256.5,173 256.5,243 256.5,243 256.5,249 262.5,255 268.5,255"/>
<text text-anchor="middle" x="335" y="176.2" font-family="Times,serif" font-size="14.00">Users::SessionsController</text>
<polyline fill="none" stroke="black" points="256.5,184 413.5,184 "/>
<polyline fill="none" stroke="black" points="256.5,208 413.5,208 "/>
<polyline fill="none" stroke="black" points="256.5,232 413.5,232 "/>
<text text-anchor="start" x="264.5" y="247.2" font-family="Times,serif" font-size="14.00">_layout</text>
</g>
<!-- PostsController -->
<g id="node9" class="node"><title>PostsController</title>
<path fill="none" stroke="black" d="M-51.5,111.5C-51.5,111.5 25.5,111.5 25.5,111.5 31.5,111.5 37.5,105.5 37.5,99.5 37.5,99.5 37.5,-89.5 37.5,-89.5 37.5,-95.5 31.5,-101.5 25.5,-101.5 25.5,-101.5 -51.5,-101.5 -51.5,-101.5 -57.5,-101.5 -63.5,-95.5 -63.5,-89.5 -63.5,-89.5 -63.5,99.5 -63.5,99.5 -63.5,105.5 -57.5,111.5 -51.5,111.5"/>
<text text-anchor="middle" x="-13" y="-86.3" font-family="Times,serif" font-size="14.00">PostsController</text>
<polyline fill="none" stroke="black" points="-63.5,-78.5 37.5,-78.5 "/>
<text text-anchor="start" x="-55.5" y="-63.3" font-family="Times,serif" font-size="14.00">create</text>
<text text-anchor="start" x="-55.5" y="-48.3" font-family="Times,serif" font-size="14.00">destroy</text>
<text text-anchor="start" x="-55.5" y="-33.3" font-family="Times,serif" font-size="14.00">edit</text>
<text text-anchor="start" x="-55.5" y="-18.3" font-family="Times,serif" font-size="14.00">index</text>
<text text-anchor="start" x="-55.5" y="-3.3" font-family="Times,serif" font-size="14.00">new</text>
<text text-anchor="start" x="-55.5" y="11.7" font-family="Times,serif" font-size="14.00">show</text>
<text text-anchor="start" x="-55.5" y="26.7" font-family="Times,serif" font-size="14.00">update</text>
<polyline fill="none" stroke="black" points="-63.5,34.5 37.5,34.5 "/>
<polyline fill="none" stroke="black" points="-63.5,58.5 37.5,58.5 "/>
<text text-anchor="start" x="-55.5" y="73.7" font-family="Times,serif" font-size="14.00">_layout</text>
<text text-anchor="start" x="-55.5" y="88.7" font-family="Times,serif" font-size="14.00">post_params</text>
<text text-anchor="start" x="-55.5" y="103.7" font-family="Times,serif" font-size="14.00">set_post</text>
</g>
</g>
</svg>
